<svg width="24" height="25" viewBox="0 0 24 25" fill="none" xmlns="http://www.w3.org/2000/svg">
<path d="M18.6667 2.84814H7.99999C7.64637 2.84814 7.30723 2.98862 7.05718 3.23867C6.80713 3.48872 6.66666 3.82786 6.66666 4.18148V8.84814H12.3333L10.08 6.65481C9.97077 6.52728 9.9137 6.36323 9.92018 6.19544C9.92666 6.02766 9.99622 5.8685 10.1149 5.74977C10.2337 5.63104 10.3928 5.56148 10.5606 5.555C10.7284 5.54852 10.8925 5.60559 11.02 5.71481L14.88 9.57481L11.02 13.4348C10.8925 13.544 10.7284 13.6011 10.5606 13.5946C10.3928 13.5881 10.2337 13.5186 10.1149 13.3999C9.99622 13.2811 9.92666 13.122 9.92018 12.9542C9.9137 12.7864 9.97077 12.6223 10.08 12.4948L12.3333 10.1815H6.66666V20.1815C6.66666 20.5351 6.80713 20.8742 7.05718 21.1243C7.30723 21.3743 7.64637 21.5148 7.99999 21.5148H18.6667C19.0203 21.5148 19.3594 21.3743 19.6095 21.1243C19.8595 20.8742 20 20.5351 20 20.1815V4.18148C20 3.82786 19.8595 3.48872 19.6095 3.23867C19.3594 2.98862 19.0203 2.84814 18.6667 2.84814V2.84814Z" fill="#100C08"/>
<path d="M6.66667 8.84814H2.66667C2.48986 8.84814 2.32029 8.91838 2.19526 9.04341C2.07024 9.16843 2 9.338 2 9.51481C2 9.69162 2.07024 9.86119 2.19526 9.98622C2.32029 10.1112 2.48986 10.1815 2.66667 10.1815H6.66667V8.84814Z" fill="#100C08"/>
</svg>
