<svg width="20" height="20" viewBox="0 0 20 20" fill="none" xmlns="http://www.w3.org/2000/svg">
<path d="M18.4863 9.86333L10.9394 2.32036L10.4336 1.8145C10.3183 1.7 10.1625 1.63574 9.99999 1.63574C9.83752 1.63574 9.68165 1.7 9.56639 1.8145L1.51366 9.86333C1.39556 9.98098 1.30222 10.1211 1.23915 10.2754C1.17609 10.4297 1.14458 10.5951 1.14647 10.7618C1.15429 11.4493 1.72655 11.9981 2.41405 11.9981H3.24413V18.3594H16.7558V11.9981H17.6035C17.9375 11.9981 18.2519 11.8672 18.4883 11.6309C18.6046 11.5149 18.6968 11.377 18.7595 11.2251C18.8222 11.0732 18.8542 10.9104 18.8535 10.7461C18.8535 10.4141 18.7226 10.0997 18.4863 9.86333ZM11.0937 16.9532H8.90624V12.9688H11.0937V16.9532ZM15.3496 10.5918V16.9532H12.3437V12.5001C12.3437 12.0684 11.9941 11.7188 11.5625 11.7188H8.43749C8.00585 11.7188 7.65624 12.0684 7.65624 12.5001V16.9532H4.65038V10.5918H2.77538L10.0019 3.37114L10.4531 3.82232L17.2265 10.5918H15.3496Z" fill="#FEF9F8"/>
</svg>
