<svg width="25" height="24" viewBox="0 0 25 24" fill="none" xmlns="http://www.w3.org/2000/svg">
<path d="M12.9952 0.333252C13.7664 0.333252 14.506 0.609814 15.0514 1.1021C15.5967 1.59438 15.903 2.26206 15.903 2.95825V13.0768C15.3931 13.1416 14.924 13.3643 14.5758 13.7068L13.9645 14.2971V2.95825C13.9645 2.72619 13.8624 2.50363 13.6806 2.33953C13.4988 2.17544 13.2523 2.08325 12.9952 2.08325H3.30257C3.04551 2.08325 2.79897 2.17544 2.6172 2.33953C2.43543 2.50363 2.33331 2.72619 2.33331 2.95825V21.0416C2.33331 21.5246 2.76754 21.9166 3.30257 21.9166H12.9952C13.092 21.9167 13.1883 21.9037 13.2808 21.8781L14.5758 23.1252L14.6546 23.1976C14.1678 23.5037 13.5885 23.6674 12.9952 23.6666H3.30257C2.53138 23.6666 1.79177 23.39 1.24645 22.8977C0.701132 22.4055 0.394775 21.7378 0.394775 21.0416V2.95825C0.394775 2.26206 0.701132 1.59438 1.24645 1.1021C1.79177 0.609814 2.53138 0.333252 3.30257 0.333252H12.9952Z" fill="white"/>
<path d="M6.53218 18.4212L9.44127 18.4165V20.1665L6.53477 20.1712C6.2777 20.1715 6.03103 20.0796 5.84901 19.9157C5.667 19.7518 5.56455 19.5294 5.56421 19.2973C5.56387 19.0653 5.66566 18.8426 5.84719 18.6783C6.02872 18.514 6.27512 18.4215 6.53218 18.4212Z" fill="white"/>
<path d="M23.8434 14.6855C23.4182 14.0474 22.9827 13.611 22.6622 13.3695C22.5649 13.2927 22.4516 13.2342 22.3289 13.1975C22.2062 13.1608 22.0766 13.1466 21.9478 13.1558C21.8189 13.1649 21.6934 13.1973 21.5786 13.2509C21.4638 13.3045 21.3621 13.3783 21.2793 13.4679C21.1966 13.5575 21.1346 13.6612 21.0969 13.7728C21.0591 13.8844 21.0465 14.0017 21.0598 14.1177C21.073 14.2338 21.1119 14.3463 21.174 14.4486C21.2361 14.5509 21.3203 14.641 21.4215 14.7135C21.5856 14.8372 21.8777 15.13 22.1801 15.585C22.6983 16.3667 23.0111 17.3059 23.0111 18.4165C23.0111 19.5272 22.6983 20.4675 22.1801 21.248C21.8777 21.703 21.5856 21.9959 21.4215 22.1195C21.3203 22.192 21.2361 22.2821 21.174 22.3844C21.1119 22.4867 21.073 22.5992 21.0598 22.7153C21.0465 22.8314 21.0591 22.9486 21.0969 23.0602C21.1346 23.1718 21.1966 23.2755 21.2793 23.3651C21.3621 23.4548 21.4638 23.5285 21.5786 23.5822C21.6934 23.6358 21.8189 23.6681 21.9478 23.6773C22.0766 23.6864 22.2062 23.6722 22.3289 23.6355C22.4516 23.5988 22.5649 23.5403 22.6622 23.4635C22.9827 23.222 23.4182 22.7869 23.8421 22.1475C24.5348 21.1057 24.9496 19.8585 24.9496 18.4165C24.9496 16.9745 24.5361 15.7274 23.8421 14.6855H23.8434Z" fill="white"/>
<path d="M20.9095 15.9618C20.674 15.6306 20.3797 15.3365 20.0385 15.0915C19.9367 15.0226 19.8208 14.9724 19.6975 14.9439C19.5742 14.9154 19.4459 14.909 19.3199 14.9253C19.1938 14.9415 19.0726 14.98 18.9631 15.0386C18.8536 15.0971 18.7579 15.1746 18.6815 15.2665C18.6051 15.3584 18.5496 15.463 18.518 15.5743C18.4864 15.6857 18.4794 15.8015 18.4974 15.9152C18.5154 16.029 18.558 16.1384 18.6229 16.2373C18.6877 16.3362 18.7735 16.4226 18.8754 16.4915C18.9555 16.5452 19.1209 16.6957 19.2967 16.9337C19.5991 17.342 19.78 17.832 19.78 18.4165C19.78 18.9998 19.5991 19.4898 19.2967 19.8993C19.1814 20.0648 19.0394 20.2139 18.8754 20.3415L18.7668 20.4267C18.5943 20.5837 18.4941 20.794 18.4863 21.015C18.4786 21.2361 18.5638 21.4516 18.725 21.6182C18.8861 21.7848 19.1112 21.8902 19.3549 21.913C19.5986 21.9359 19.8428 21.8746 20.0385 21.7415C20.2827 21.577 20.6007 21.2888 20.9095 20.87C21.4453 20.1438 21.7271 19.289 21.7185 18.4165C21.7185 17.4692 21.4148 16.6467 20.9095 15.9618Z" fill="white"/>
<path d="M17.1954 15.2083C17.1953 15.0304 17.1351 14.8567 17.0229 14.7105C16.9107 14.5642 16.7517 14.4523 16.5672 14.3897C16.3828 14.3271 16.1815 14.3167 15.9903 14.36C15.7992 14.4033 15.6272 14.4982 15.4973 14.632L13.5251 16.6666H11.7029C11.4458 16.6666 11.1993 16.7588 11.0175 16.9229C10.8358 17.087 10.7336 17.3096 10.7336 17.5416V19.2916C10.7336 19.7746 11.1679 20.1666 11.7029 20.1666H13.5251L15.4973 22.2013C15.6272 22.3351 15.7992 22.43 15.9903 22.4732C16.1815 22.5165 16.3828 22.5062 16.5672 22.4436C16.7517 22.381 16.9107 22.2691 17.0229 22.1228C17.1351 21.9766 17.1953 21.8029 17.1954 21.625V15.2083Z" fill="white"/>
</svg>
