<svg width="24" height="24" viewBox="0 0 24 24" fill="none" xmlns="http://www.w3.org/2000/svg">
<g clip-path="url(#clip0_1303_1958)">
<path d="M12.6586 13.5666C12.7286 13.5666 12.797 13.5458 12.8551 13.5067C12.9131 13.4676 12.9582 13.4121 12.9845 13.3473C13.0109 13.2824 13.0172 13.2112 13.0029 13.1427C12.9885 13.0742 12.954 13.0116 12.9037 12.9628L11.5837 11.6803H11.6142C11.9367 11.6795 12.2496 11.5701 12.5023 11.3699C12.7551 11.1697 12.9332 10.8902 13.0078 10.5764H13.2942C13.3875 10.5764 13.4769 10.5394 13.5428 10.4734C13.6087 10.4075 13.6458 10.3181 13.6458 10.2248C13.6458 10.1316 13.6087 10.0422 13.5428 9.97625C13.4769 9.91032 13.3875 9.87328 13.2942 9.87328H12.9994C12.9651 9.74509 12.9134 9.62221 12.8456 9.50812H13.2942C13.3875 9.50812 13.4769 9.47109 13.5428 9.40515C13.6087 9.33922 13.6458 9.2498 13.6458 9.15656C13.6458 9.06332 13.6087 8.9739 13.5428 8.90797C13.4769 8.84204 13.3875 8.805 13.2942 8.805H10.7302C10.6369 8.805 10.5475 8.84204 10.4816 8.90797C10.4156 8.9739 10.3786 9.06332 10.3786 9.15656C10.3786 9.2498 10.4156 9.33922 10.4816 9.40515C10.5475 9.47109 10.6369 9.50812 10.7302 9.50812H11.6142C11.742 9.50842 11.8675 9.54231 11.9781 9.6064C12.0887 9.67049 12.1804 9.76253 12.2442 9.87328H10.7302C10.6369 9.87328 10.5475 9.91032 10.4816 9.97625C10.4156 10.0422 10.3786 10.1316 10.3786 10.2248C10.3786 10.3181 10.4156 10.4075 10.4816 10.4734C10.5475 10.5394 10.6369 10.5764 10.7302 10.5764H12.2639C12.2031 10.6966 12.1103 10.7977 11.9956 10.8684C11.8809 10.9392 11.7489 10.9768 11.6142 10.9772H10.7503C10.6776 10.9696 10.6044 10.9849 10.5408 11.0209C10.4772 11.0569 10.4264 11.1118 10.3955 11.178C10.3646 11.2442 10.355 11.3184 10.3682 11.3903C10.3814 11.4622 10.4166 11.5282 10.4691 11.5791L12.4125 13.4672C12.4785 13.5311 12.5667 13.5668 12.6586 13.5666V13.5666ZM23.6484 23.2969H23.1628L22.7508 22.4738C22.6638 22.2981 22.5293 22.1504 22.3626 22.0473C22.1959 21.9443 22.0036 21.89 21.8077 21.8906H20.8748V14.047C21.1151 13.9621 21.3178 13.7954 21.4477 13.5762C21.5776 13.357 21.6263 13.0991 21.5854 12.8476C21.5445 12.5961 21.4165 12.367 21.2238 12.2002C21.0311 12.0335 20.786 11.9397 20.5312 11.9353H17.865V10.7634H17.887C18.181 10.7634 18.463 10.6466 18.6709 10.4387C18.8788 10.2308 18.9956 9.94886 18.9956 9.65484C18.9956 9.36083 18.8788 9.07885 18.6709 8.87095C18.463 8.66305 18.181 8.54625 17.887 8.54625H17.7216C17.4421 7.30609 16.7674 6.19029 15.7988 5.36685C14.8303 4.54341 13.6205 4.05692 12.3516 3.98062V2.85938H15.6562C15.7145 2.85927 15.7719 2.84469 15.8232 2.81694C15.8744 2.7892 15.918 2.74916 15.95 2.70041C15.982 2.65166 16.0013 2.59574 16.0063 2.53766C16.0114 2.47958 16.0019 2.42117 15.9788 2.36766L15.5709 1.43016L15.9788 0.492656C16.0021 0.439103 16.0117 0.380585 16.0068 0.322377C16.0019 0.264168 15.9826 0.208099 15.9506 0.159224C15.9186 0.110348 15.8749 0.0702032 15.8235 0.0424069C15.7722 0.0146107 15.7147 3.71218e-05 15.6562 0L12 0C11.9068 0 11.8173 0.0370395 11.7514 0.10297C11.6855 0.168901 11.6484 0.258322 11.6484 0.351562V3.98062C10.3794 4.05664 9.16946 4.54297 8.20084 5.36635C7.23221 6.18973 6.55737 7.30557 6.27797 8.54578H6.11297C5.81895 8.54578 5.53698 8.66258 5.32907 8.87048C5.12117 9.07838 5.00438 9.36036 5.00438 9.65438C5.00438 9.94839 5.12117 10.2304 5.32907 10.4383C5.53698 10.6462 5.81895 10.763 6.11297 10.763H6.135V11.9348H3.48891C3.20048 11.9348 2.92387 12.0494 2.71993 12.2534C2.51598 12.4573 2.40141 12.7339 2.40141 13.0223C2.40141 13.3108 2.51598 13.5874 2.71993 13.7913C2.92387 13.9953 3.20048 14.1098 3.48891 14.1098H3.51562V21.8906H2.19234C1.99635 21.89 1.8041 21.9443 1.6374 22.0473C1.4707 22.1504 1.33622 22.2981 1.24922 22.4738L0.837656 23.2969H0.351562C0.258322 23.2969 0.168901 23.3339 0.10297 23.3998C0.0370395 23.4658 0 23.5552 0 23.6484C0 23.7417 0.0370395 23.8311 0.10297 23.897C0.168901 23.963 0.258322 24 0.351562 24H23.6484C23.7417 24 23.8311 23.963 23.897 23.897C23.963 23.8311 24 23.7417 24 23.6484C24 23.5552 23.963 23.4658 23.897 23.3998C23.8311 23.3339 23.7417 23.2969 23.6484 23.2969ZM12.3516 0.703125H15.12L14.865 1.28953C14.8456 1.33388 14.8356 1.38176 14.8356 1.43016C14.8356 1.47856 14.8456 1.52643 14.865 1.57078L15.12 2.15625H12.3516V0.703125ZM20.5111 12.638C20.613 12.638 20.7108 12.6785 20.7829 12.7505C20.855 12.8226 20.8955 12.9204 20.8955 13.0223C20.8955 13.1243 20.855 13.2221 20.7829 13.2941C20.7108 13.3662 20.613 13.4067 20.5111 13.4067H15.0319C15.2202 13.17 15.38 12.912 15.5081 12.638H20.5111ZM20.1717 14.1094V21.8906H19.1794C19.1013 21.4651 18.8588 21.0874 18.5044 20.8392V15.105C18.8424 14.8678 19.0792 14.5126 19.1681 14.1094H20.1717ZM17.5613 14.7H17.1094C16.9214 14.6999 16.7377 14.6436 16.582 14.5384C16.4262 14.4331 16.3054 14.2837 16.2352 14.1094H18.4345C18.3643 14.2836 18.2437 14.4329 18.0881 14.5381C17.9325 14.6433 17.7491 14.6997 17.5613 14.7V14.7ZM17.8013 15.3858V20.5584C17.7218 20.5468 17.6416 20.5408 17.5613 20.5406H17.1094C17.0291 20.5408 16.9488 20.5468 16.8694 20.5584V15.3858C16.9489 15.3973 17.0291 15.4031 17.1094 15.4031H17.5622C17.6422 15.403 17.7221 15.3972 17.8013 15.3858ZM17.1094 21.2438H17.5622C17.7601 21.2443 17.9527 21.3071 18.113 21.4232C18.2732 21.5393 18.3929 21.7028 18.4552 21.8906H16.2145C16.2769 21.7025 16.3968 21.5387 16.5575 21.4226C16.7181 21.3065 16.9112 21.2439 17.1094 21.2438ZM12.1153 15.5358C12.0407 15.5095 11.9593 15.5095 11.8847 15.5358C11.2247 15.7653 10.6525 16.1946 10.2475 16.764C9.8425 17.3334 9.62471 18.0147 9.62438 18.7134V21.8906H8.58563C8.50734 21.4651 8.2649 21.0875 7.91062 20.8392V15.105C8.24863 14.8678 8.48545 14.5126 8.57437 14.1094H9.69141C10.3588 14.6055 11.1684 14.8735 12 14.8735C12.8316 14.8735 13.6412 14.6055 14.3086 14.1094H15.5016C15.5904 14.5125 15.8273 14.8676 16.1653 15.1045V20.8392C15.8109 21.0874 15.5684 21.4651 15.4903 21.8906H14.3756V18.7134C14.3753 18.0147 14.1575 17.3334 13.7525 16.764C13.3475 16.1946 12.7753 15.7653 12.1153 15.5358V15.5358ZM13.6725 18.7134V21.8344H10.3275V18.7134C10.3278 18.1817 10.4872 17.6622 10.7853 17.2219C11.0834 16.7815 11.5064 16.4405 12 16.2427C12.4936 16.4405 12.9166 16.7815 13.2147 17.2219C13.5128 17.6622 13.6722 18.1817 13.6725 18.7134V18.7134ZM8.83594 11.0067C8.83594 10.2747 9.08977 9.56532 9.55416 8.99947C10.0186 8.43361 10.6648 8.04628 11.3827 7.90348C12.1007 7.76067 12.846 7.87123 13.4915 8.2163C14.1371 8.56138 14.6431 9.11963 14.9232 9.79593C15.2033 10.4722 15.2403 11.2247 15.0278 11.9252C14.8153 12.6257 14.3665 13.2309 13.7578 13.6376C13.1492 14.0443 12.4183 14.2273 11.6898 14.1556C10.9614 14.0838 10.2803 13.7617 9.76266 13.2441C9.46793 12.9509 9.23427 12.6023 9.0752 12.2182C8.91613 11.8342 8.8348 11.4224 8.83594 11.0067V11.0067ZM15.8588 10.763H17.1619V11.9348H15.7556C15.8297 11.631 15.8671 11.3194 15.8672 11.0067C15.8672 10.9252 15.8639 10.8436 15.8588 10.763ZM17.4333 9.24891H17.887C17.9946 9.24891 18.0977 9.29162 18.1737 9.36767C18.2498 9.44371 18.2925 9.54684 18.2925 9.65438C18.2925 9.76191 18.2498 9.86504 18.1737 9.94108C18.0977 10.0171 17.9946 10.0598 17.887 10.0598H15.75C15.6794 9.77881 15.5771 9.50674 15.4448 9.24891H17.4323H17.4333ZM8.65594 5.9025C9.32259 5.33574 10.1223 4.9477 10.9801 4.77481C11.8379 4.60192 12.7255 4.64986 13.5596 4.91412C14.3938 5.17837 15.1471 5.65028 15.7488 6.28554C16.3506 6.92079 16.781 7.69855 16.9997 8.54578H14.9841C14.9058 8.45203 14.8233 8.35828 14.7356 8.27203C14.0103 7.54692 13.0266 7.13957 12.0009 7.13957C10.9753 7.13957 9.99162 7.54692 9.26625 8.27203C9.17859 8.36016 9.09609 8.45156 9.01781 8.54578H7.00219C7.26841 7.51555 7.84591 6.5925 8.65594 5.9025V5.9025ZM6.11297 10.0598C6.00543 10.0598 5.9023 10.0171 5.82626 9.94108C5.75022 9.86504 5.7075 9.76191 5.7075 9.65438C5.7075 9.54684 5.75022 9.44371 5.82626 9.36767C5.9023 9.29162 6.00543 9.24891 6.11297 9.24891H8.55422C8.42199 9.50674 8.31961 9.77881 8.24906 10.0598H6.11297ZM8.24484 11.9348H6.83859V10.763H8.14172C8.13656 10.8436 8.13328 10.9252 8.13328 11.0067C8.13309 11.3194 8.17055 11.6311 8.24484 11.9348ZM3.48891 13.4062C3.38696 13.4062 3.2892 13.3658 3.21711 13.2937C3.14503 13.2216 3.10453 13.1238 3.10453 13.0219C3.10453 12.9199 3.14503 12.8222 3.21711 12.7501C3.2892 12.678 3.38696 12.6375 3.48891 12.6375H8.49188C8.62 12.9115 8.77984 13.1695 8.96813 13.4062H3.48891ZM6.9675 14.6995H6.51562C6.32769 14.6995 6.14407 14.6432 5.9883 14.5381C5.83254 14.4329 5.71174 14.2837 5.64141 14.1094H7.84078C7.77058 14.2836 7.64996 14.4329 7.49437 14.5381C7.33879 14.6433 7.15533 14.6997 6.9675 14.7V14.6995ZM7.2075 15.3853V20.5584C7.12803 20.5468 7.04782 20.5408 6.9675 20.5406H6.51562C6.4353 20.5408 6.3551 20.5468 6.27563 20.5584V15.3858C6.35511 15.3973 6.43531 15.4031 6.51562 15.4031H6.96844C7.04844 15.403 7.12832 15.3972 7.2075 15.3858V15.3853ZM6.51562 21.2438H6.96844C7.16631 21.2443 7.359 21.3071 7.51924 21.4232C7.67949 21.5393 7.79918 21.7028 7.86141 21.8906H5.62078C5.6831 21.7025 5.80309 21.5387 5.96371 21.4226C6.12433 21.3065 6.31743 21.2439 6.51562 21.2438ZM5.5725 15.1031V20.8392C5.21773 21.0872 4.97489 21.4649 4.89656 21.8906H4.21875V14.1094H4.90781C4.99656 14.5127 5.23343 14.868 5.57156 15.105L5.5725 15.1031ZM1.62375 23.2969L1.87781 22.7883C1.90682 22.7297 1.95166 22.6804 2.00726 22.646C2.06285 22.6116 2.12697 22.5935 2.19234 22.5938H21.8077C21.873 22.5935 21.9371 22.6116 21.9927 22.646C22.0483 22.6804 22.0932 22.7297 22.1222 22.7883L22.3767 23.2969H1.62375Z" fill="white"/>
</g>
<defs>
<clipPath id="clip0_1303_1958">
<rect width="24" height="24" fill="white"/>
</clipPath>
</defs>
</svg>
